<svg width="14" height="14" viewBox="0 0 14 14" fill="none" xmlns="http://www.w3.org/2000/svg">
<path fill-rule="evenodd" clip-rule="evenodd" d="M3.146 0C2.643 0 2.156 0.046 1.699 0.097C1.2882 0.14405 0.905523 0.329135 0.613596 0.62197C0.321669 0.914806 0.137774 1.29805 0.092 1.709C0.0367383 2.18577 0.00603104 2.66507 0 3.145C0 3.644 0.043 4.127 0.092 4.582C0.182 5.426 0.857 6.1 1.699 6.194C2.156 6.245 2.643 6.291 3.146 6.291C3.38133 6.29033 3.61233 6.28167 3.839 6.265C4.07753 5.72977 4.41205 5.24274 4.826 4.828C5.24155 4.41338 5.72962 4.07851 6.266 3.84C6.282 3.61267 6.29033 3.381 6.291 3.145C6.291 2.647 6.248 2.164 6.199 1.709C6.15323 1.29805 5.96933 0.914806 5.6774 0.62197C5.38548 0.329135 5.0028 0.14405 4.592 0.097C4.11185 0.0377669 3.62976 0.00538323 3.146 0ZM3.145 7.604C3.241 7.604 3.33667 7.60567 3.432 7.609C3.36267 8.01033 3.32833 8.418 3.329 8.832C3.329 10.319 3.753 11.765 4.825 12.836C5.043 13.054 5.27567 13.246 5.523 13.412C5.25559 13.6272 4.93221 13.7615 4.591 13.799C4.134 13.849 3.647 13.895 3.144 13.895C2.641 13.895 2.154 13.85 1.698 13.799C1.2872 13.7519 0.904523 13.5669 0.612596 13.274C0.320669 12.9812 0.136774 12.5979 0.091 12.187C0.0360382 11.7099 0.00566474 11.2302 0 10.75C0 10.252 0.043 9.768 0.092 9.313C0.13773 8.9022 0.321481 8.51907 0.613208 8.22626C0.904934 7.93344 1.28738 7.74826 1.698 7.701C2.155 7.651 2.642 7.604 3.145 7.604ZM13.823 4.582C13.7855 4.93412 13.645 5.26736 13.419 5.54C13.2475 5.28403 13.0512 5.04555 12.833 4.828C11.762 3.756 10.316 3.332 8.829 3.332C8.42687 3.3308 8.02538 3.36426 7.629 3.432C7.62581 3.33637 7.62414 3.24069 7.624 3.145C7.624 2.647 7.667 2.164 7.716 1.709C7.76182 1.2979 7.94586 0.914538 8.23798 0.621684C8.53011 0.32883 8.91302 0.143838 9.324 0.097C9.781 0.046 10.268 0 10.771 0C11.274 0 11.761 0.046 12.217 0.097C12.6279 0.143876 13.0106 0.328905 13.3026 0.621773C13.5946 0.914642 13.7784 1.29798 13.824 1.709C13.873 2.164 13.916 2.647 13.916 3.145C13.916 3.644 13.873 4.127 13.824 4.582M6.77 6.772C6.354 7.189 6.08 7.85 6.08 8.832C6.08 9.814 6.354 10.475 6.77 10.892C7.187 11.308 7.848 11.582 8.83 11.582C9.812 11.582 10.473 11.308 10.89 10.892C11.306 10.475 11.58 9.814 11.58 8.832C11.58 7.85 11.306 7.189 10.89 6.772C10.473 6.356 9.812 6.082 8.83 6.082C7.848 6.082 7.187 6.356 6.77 6.772ZM5.71 5.712C6.483 4.938 7.572 4.582 8.83 4.582C10.088 4.582 11.177 4.938 11.95 5.712C12.723 6.486 13.08 7.574 13.08 8.832C13.08 9.799 12.87 10.666 12.421 11.367L13.674 12.62C13.7477 12.6887 13.8068 12.7715 13.8478 12.8635C13.8888 12.9555 13.9108 13.0548 13.9126 13.1555C13.9144 13.2562 13.8958 13.3562 13.8581 13.4496C13.8204 13.543 13.7643 13.6278 13.693 13.699C13.6218 13.7703 13.537 13.8264 13.4436 13.8641C13.3502 13.9018 13.2502 13.9204 13.1495 13.9186C13.0488 13.9168 12.9495 13.8948 12.8575 13.8538C12.7655 13.8128 12.6827 13.7537 12.614 13.68L11.36 12.426C10.66 12.873 9.795 13.082 8.83 13.082C7.572 13.082 6.483 12.726 5.71 11.952C4.937 11.178 4.58 10.09 4.58 8.832C4.58 7.574 4.936 6.485 5.71 5.712Z" fill="#8C490C"/>
</svg>
