<svg width="18" height="18" viewBox="0 0 18 18" fill="none" xmlns="http://www.w3.org/2000/svg">
<path d="M9.6664 0C10.6524 0.00262946 11.1529 0.00788838 11.585 0.0201592L11.7551 0.0262946C11.9514 0.0333065 12.1451 0.0420713 12.3791 0.0525892C13.3117 0.0964135 13.948 0.243663 14.5064 0.460156C15.0848 0.682783 15.5722 0.984295 16.0595 1.47074C16.5054 1.90875 16.8502 2.4388 17.0701 3.02388C17.2866 3.5822 17.4338 4.21853 17.4776 5.15199C17.4882 5.38514 17.4969 5.57884 17.5039 5.77605L17.5092 5.94609C17.5223 6.37732 17.5276 6.87779 17.5294 7.86384L17.5302 8.5177V9.6659C17.5324 10.3052 17.5256 10.9445 17.5101 11.5836L17.5048 11.7537C17.4978 11.9509 17.489 12.1446 17.4785 12.3777C17.4347 13.3112 17.2857 13.9467 17.0701 14.5059C16.8502 15.0909 16.5054 15.621 16.0595 16.059C15.6215 16.5049 15.0914 16.8497 14.5064 17.0696C13.948 17.2861 13.3117 17.4333 12.3791 17.4771L11.7551 17.5034L11.585 17.5087C11.1529 17.521 10.6524 17.5271 9.6664 17.5289L9.01254 17.5297H7.86521C7.22561 17.532 6.586 17.5253 5.94659 17.5096L5.77655 17.5043C5.56848 17.4964 5.36045 17.4874 5.15249 17.4771C4.21991 17.4333 3.58358 17.2861 3.02438 17.0696C2.43961 16.8496 1.90987 16.5047 1.47212 16.059C1.02594 15.6211 0.680748 15.091 0.460654 14.5059C0.244162 13.9475 0.096912 13.3112 0.0530877 12.3777L0.0267931 11.7537L0.0224108 11.5836C0.00625368 10.9445 -0.00105117 10.3052 0.000498543 9.6659V7.86384C-0.00192748 7.22453 0.00450077 6.58522 0.0197813 5.94609L0.0259167 5.77605C0.0329286 5.57884 0.0416934 5.38514 0.0522113 5.15199C0.0960356 4.21853 0.243285 3.58308 0.459778 3.02388C0.680384 2.43856 1.02618 1.90849 1.473 1.47074C1.9105 1.02509 2.43993 0.680218 3.02438 0.460156C3.58358 0.243663 4.21903 0.0964135 5.15249 0.0525892C5.38563 0.0420713 5.58021 0.0333065 5.77655 0.0262946L5.94659 0.0210356C6.58571 0.00546289 7.22502 -0.00125749 7.86434 0.000876423L9.6664 0ZM8.76537 4.38243C7.60307 4.38243 6.48838 4.84415 5.66652 5.66602C4.84465 6.48789 4.38293 7.60257 4.38293 8.76487C4.38293 9.92716 4.84465 11.0419 5.66652 11.8637C6.48838 12.6856 7.60307 13.1473 8.76537 13.1473C9.92766 13.1473 11.0423 12.6856 11.8642 11.8637C12.6861 11.0419 13.1478 9.92716 13.1478 8.76487C13.1478 7.60257 12.6861 6.48789 11.8642 5.66602C11.0423 4.84415 9.92766 4.38243 8.76537 4.38243ZM8.76537 6.13541C9.11067 6.13535 9.45261 6.20331 9.77165 6.3354C10.0907 6.46749 10.3806 6.66112 10.6248 6.90525C10.869 7.14938 11.0627 7.43921 11.1949 7.75821C11.3271 8.07721 11.3952 8.41912 11.3953 8.76443C11.3953 9.10974 11.3274 9.45167 11.1953 9.77071C11.0632 10.0898 10.8696 10.3797 10.6254 10.6239C10.3813 10.8681 10.0915 11.0618 9.77246 11.194C9.45346 11.3262 9.11155 11.3943 8.76624 11.3943C8.06887 11.3943 7.40005 11.1173 6.90693 10.6242C6.41381 10.1311 6.13678 9.46224 6.13678 8.76487C6.13678 8.06749 6.41381 7.39868 6.90693 6.90556C7.40005 6.41244 8.06887 6.13541 8.76624 6.13541M13.3678 3.0677C13.0772 3.0677 12.7986 3.18313 12.5931 3.3886C12.3876 3.59407 12.2722 3.87274 12.2722 4.16331C12.2722 4.45389 12.3876 4.73256 12.5931 4.93802C12.7986 5.14349 13.0772 5.25892 13.3678 5.25892C13.6584 5.25892 13.937 5.14349 14.1425 4.93802C14.348 4.73256 14.4634 4.45389 14.4634 4.16331C14.4634 3.87274 14.348 3.59407 14.1425 3.3886C13.937 3.18313 13.6584 3.0677 13.3678 3.0677Z" fill="#D99206"/>
</svg>
