<svg width="17" height="16" viewBox="0 0 17 16" fill="none" xmlns="http://www.w3.org/2000/svg">
<path d="M3.50595 1.75385C3.50572 2.21877 3.3208 2.66455 2.99189 2.99313C2.66298 3.32172 2.21702 3.50618 1.7521 3.50595C1.28718 3.50572 0.841396 3.3208 0.512814 2.99189C0.184232 2.66298 -0.000232239 2.21702 2.19439e-07 1.7521C0.000232678 1.28718 0.185143 0.841396 0.514054 0.512814C0.842965 0.184232 1.28893 -0.000232239 1.75385 2.19439e-07C2.21877 0.000232678 2.66455 0.185143 2.99313 0.514054C3.32172 0.842965 3.50618 1.28893 3.50595 1.75385ZM3.55854 4.80402H0.0525894V15.7776H3.55854V4.80402ZM9.09793 4.80402H5.60952V15.7776H9.06287V10.0191C9.06287 6.81118 13.2437 6.51317 13.2437 10.0191V15.7776H16.7058V8.8271C16.7058 3.41918 10.5178 3.62077 9.06287 6.27652L9.09793 4.80402Z" fill="#D99206"/>
</svg>
