<svg width="14" height="15" viewBox="0 0 14 15" fill="none" xmlns="http://www.w3.org/2000/svg">
<path d="M4.39534 10.2498L4.06799 9.88248L4.82822 9.01975L5.15414 9.38706L4.39534 10.2498ZM2.97035 9.72842L1.59848 10.5709L1.08519 9.5022L2.45634 8.66056L2.97035 9.72842ZM1.33501 12.2444L2.3544 13.3901L1.5956 14.2521L0.576213 13.1072L1.33501 12.2444ZM2.97609 13.7583C4.01702 13.8685 6.70907 13.7704 9.62511 10.4963L10.3846 11.3582C7.20297 14.9315 4.17423 15.1067 2.87559 14.9696L2.97609 13.7583ZM9.62511 10.4963C12.404 7.37458 12.8649 4.74991 12.9223 3.61069L13.9977 3.67962C13.9259 5.11317 13.3552 8.02243 10.3846 11.3582L9.62511 10.4963ZM8.63802 5.48534L8.43199 5.25344L9.19007 4.39153L9.3961 4.62261L8.63802 5.48534ZM8.26831 2.30607L9.17284 0.940625L10.035 1.67037L9.13049 3.035L8.26831 2.30607ZM12.2174 0.64305L13.3444 1.90795L12.5849 2.77067L11.4586 1.50577L12.2174 0.64305ZM9.01706 5.05398C9.39754 4.62261 9.39754 4.62261 9.39754 4.62423H9.39897L9.40113 4.62748C9.43524 4.66633 9.46579 4.70898 9.4923 4.75478C9.53106 4.81964 9.57342 4.90478 9.60931 5.01262C9.6967 5.291 9.71847 5.59027 9.67249 5.88102C9.57629 6.58239 9.14843 7.50917 8.05295 8.74002L7.29343 7.87729C8.31928 6.72591 8.56336 6.02535 8.60859 5.69453C8.63012 5.53723 8.60787 5.45939 8.60141 5.44155C8.5971 5.43074 8.5971 5.42912 8.60141 5.43669C8.60781 5.44788 8.61501 5.45845 8.62294 5.46831L8.63012 5.47642L8.6373 5.48372L9.01706 5.05398ZM8.05295 8.74002C6.95674 9.97086 6.1319 10.4509 5.51021 10.5579C5.19219 10.613 4.93591 10.5693 4.74136 10.4874C4.63239 10.4423 4.53057 10.3777 4.43985 10.296L4.40396 10.2595L4.39893 10.2547L4.39678 10.2522L4.39606 10.2506C4.39606 10.2506 4.39534 10.2498 4.7751 9.81842C5.15558 9.38706 5.15342 9.38625 5.15342 9.38625L5.15199 9.38463L5.15055 9.38301L5.14625 9.37895L5.13907 9.37084L5.11179 9.34652C5.10509 9.34166 5.10676 9.3422 5.11681 9.34814C5.13476 9.35544 5.20511 9.38057 5.34653 9.35625C5.64374 9.30436 6.26829 9.02867 7.29343 7.87729L8.05295 8.74002ZM9.17284 0.939814C9.90508 -0.162917 11.3437 -0.338057 12.2174 0.64305L11.4586 1.50577C11.0767 1.07684 10.399 1.12144 10.035 1.67037L9.17284 0.939814ZM12.9216 3.61151C12.936 3.33096 12.8218 3.03744 12.5849 2.77148L13.3452 1.90876C13.7307 2.34174 14.0343 2.95473 13.9977 3.67962L12.9216 3.61151ZM2.3544 13.3901C2.5511 13.6123 2.7636 13.7372 2.97537 13.7591L2.87559 14.9696C2.34794 14.9137 1.9165 14.6137 1.59489 14.2529L2.3544 13.3901ZM8.43199 5.25344C7.72487 4.45964 7.67247 3.20528 8.26759 2.30688L9.12977 3.03581C8.84046 3.47285 8.88353 4.04611 9.19079 4.39234L8.43199 5.25344ZM1.59776 10.5717C1.01125 10.9317 0.920078 11.7798 1.3343 12.2452L0.574777 13.1072C-0.387184 12.0263 -0.0906982 10.2238 1.08447 9.50301L1.59776 10.5717ZM4.06799 9.88329C3.79232 9.57355 3.34867 9.49733 2.96963 9.72923L2.45563 8.66137C3.23381 8.18298 4.19864 8.31514 4.82751 9.02057L4.06799 9.88329Z" fill="white"/>
</svg>
