<svg width="18" height="18" viewBox="0 0 18 18" fill="none" xmlns="http://www.w3.org/2000/svg">
<path d="M16.4583 5.20833L13.125 6.875M13.125 6.875L12.7083 7.08333L8.95833 8.95833M13.125 6.875V9.79167M13.125 6.875L5.20833 2.70833M8.95833 8.95833L1.45833 5.20833M8.95833 8.95833V16.875M11.94 1.77667L13.6067 2.65167C15.3992 3.5925 16.2958 4.0625 16.7942 4.90833C17.2917 5.75333 17.2917 6.80583 17.2917 8.91V9.0075C17.2917 11.1108 17.2917 12.1633 16.7942 13.0083C16.2958 13.8542 15.3992 14.325 13.6067 15.2658L11.94 16.14C10.4767 16.9075 9.745 17.2917 8.95833 17.2917C8.17167 17.2917 7.44 16.9083 5.97667 16.14L4.31 15.265C2.5175 14.3242 1.62083 13.8542 1.1225 13.0083C0.625 12.1633 0.625 11.1108 0.625 9.00833V8.91083C0.625 6.80667 0.625 5.75417 1.1225 4.90917C1.62083 4.06333 2.5175 3.5925 4.31 2.6525L5.97667 1.7775C7.44 1.00917 8.17167 0.625 8.95833 0.625C9.745 0.625 10.4767 1.00833 11.94 1.77667Z" stroke="white" stroke-width="1.25" stroke-linecap="round"/>
</svg>
