<svg width="17" height="15" viewBox="0 0 17 15" fill="none" xmlns="http://www.w3.org/2000/svg">
<path fill-rule="evenodd" clip-rule="evenodd" d="M14.0694 13.5752L14.07 13.5737L14.0845 13.5375L16.592 0.93827V0.897347C16.592 0.583429 16.4757 0.30938 16.2224 0.144997C16.0007 0.00111192 15.7459 -0.00913513 15.5672 0.00438201C15.3782 0.0186777 15.2 0.0656906 15.0766 0.104824C15.0132 0.124957 14.9601 0.144356 14.9221 0.159028C14.903 0.166392 14.8875 0.172641 14.8763 0.177296L14.8653 0.181927L0.884695 5.64771L0.880847 5.64908C0.873296 5.65182 0.863311 5.65553 0.851251 5.66021C0.827207 5.66954 0.79448 5.68289 0.756033 5.70025C0.680543 5.73435 0.576243 5.78697 0.470466 5.85916C0.290812 5.98177 -0.0512757 6.27204 0.00648856 6.73222C0.0543346 7.1134 0.317981 7.35548 0.495724 7.48082C0.591004 7.54801 0.682157 7.59646 0.748907 7.62813C0.782729 7.64417 0.811457 7.65646 0.832852 7.66515C0.843579 7.6695 0.852548 7.67298 0.859488 7.6756L0.868372 7.67891L0.874051 7.68101L3.32004 8.50168C3.31179 8.65463 3.32701 8.81057 3.36771 8.96443L4.59293 13.5964C4.7382 14.1457 5.23675 14.5282 5.80665 14.5278C6.3175 14.5274 6.77055 14.2195 6.96303 13.7599L8.87591 11.7215L12.1612 14.2317L12.2079 14.252C12.5064 14.3819 12.7853 14.423 13.0402 14.3883C13.2948 14.3536 13.4972 14.2472 13.6491 14.126C13.7987 14.0068 13.9012 13.8722 13.9657 13.7709C13.9984 13.7194 14.0228 13.6741 14.0398 13.6401C14.0483 13.623 14.055 13.6085 14.06 13.5972L14.0663 13.5827L14.0685 13.5774L14.0694 13.5752ZM4.58048 8.64579C4.55264 8.54052 4.59635 8.42939 4.68857 8.37102L12.985 3.12026C12.985 3.12026 13.473 2.82502 13.4556 3.12026C13.4556 3.12026 13.5427 3.1724 13.2812 3.41551C13.0332 3.64641 7.36807 9.09729 6.79484 9.64886C6.76176 9.6807 6.74201 9.71722 6.73035 9.76156L5.80571 13.2778L4.58048 8.64579Z" fill="#D99206"/>
</svg>
