<svg width="17" height="17" viewBox="0 0 17 17" fill="none" xmlns="http://www.w3.org/2000/svg">
<path d="M8.28809 0.5C10.3725 0.500108 12.3237 1.31909 13.7949 2.80469C15.2659 4.29022 16.0752 6.26775 16.0752 8.37402C16.075 12.7172 12.5731 16.243 8.28809 16.2432H8.2832C6.98071 16.2431 5.70057 15.9111 4.56348 15.2861C4.47912 15.2399 4.38376 15.2192 4.28906 15.2256L4.19531 15.2412L0.638672 16.1836L1.58984 12.6836C1.62448 12.556 1.60743 12.4195 1.54199 12.3047C0.859221 11.1086 0.499573 9.75141 0.5 8.37012V8.36914C0.500242 4.02586 4.00307 0.5 8.28809 0.5ZM5.24902 3.86133C4.98819 3.86139 4.61465 3.95808 4.30762 4.29395C4.29785 4.30463 4.28699 4.31743 4.27246 4.33301C4.02272 4.60081 3.42774 5.24312 3.42773 6.44043C3.42773 7.07591 3.65139 7.67367 3.87012 8.1123C3.98112 8.33488 4.09675 8.527 4.19238 8.6748L4.39746 8.97168L4.40137 8.97754L4.40723 8.98535C4.41353 8.99468 4.42169 9.00705 4.43262 9.02344C4.69005 9.4095 6.01855 11.4178 8.08203 12.333L8.2832 12.418C9.11791 12.7513 9.67958 12.9149 10.0938 12.9854C10.5265 13.059 10.7866 13.0279 10.9902 13.0029C11.0296 12.9981 11.0603 12.995 11.0898 12.9922L11.0889 12.9912C11.4034 12.9614 11.8009 12.7818 12.1201 12.5732C12.4339 12.3682 12.8145 12.0437 12.9619 11.6309L12.9629 11.6279C13.0653 11.3344 13.1187 11.0582 13.1377 10.834C13.1471 10.7224 13.1489 10.6157 13.1416 10.5215C13.1364 10.4539 13.1222 10.3087 13.0469 10.1797C12.9647 10.0391 12.847 9.95602 12.7715 9.90918C12.6957 9.86223 12.6066 9.8195 12.54 9.78711L12.4287 9.73145L11.6836 9.36328C11.3814 9.21569 11.0405 9.05177 10.9141 9.00391C10.8264 8.97073 10.6319 8.89424 10.416 8.91992C10.2131 8.94419 10.0572 9.0439 9.94043 9.17188L9.83984 9.30176C9.73581 9.45778 9.44472 9.80586 9.27539 10.0068C9.24042 9.99078 9.20399 9.97445 9.1709 9.95996C8.88705 9.8357 8.34828 9.60007 7.72168 9.03418L7.7207 9.0332L7.51172 8.83301C7.11792 8.42996 6.83007 7.99225 6.68945 7.76074C6.71397 7.73392 6.74077 7.70779 6.76465 7.67969L6.9873 7.41016C7.12815 7.246 7.1919 7.10964 7.25 6.9873C7.25756 6.97138 7.26481 6.95537 7.27246 6.93945C7.39496 6.68459 7.37347 6.45349 7.31738 6.27832L7.25391 6.12305C7.25266 6.12019 7.2474 6.10819 7.23633 6.08203C7.22355 6.05182 7.20655 6.01172 7.18652 5.96289C7.14652 5.86535 7.0951 5.73854 7.03809 5.59766C6.89357 5.24056 6.71019 4.78814 6.59961 4.53809V4.53711C6.49579 4.30329 6.35677 4.10753 6.15234 3.9873C5.95075 3.86876 5.75253 3.86818 5.67676 3.86621H5.67773C5.54417 3.86173 5.39082 3.86133 5.24902 3.86133Z" fill="#D99206" stroke="#D99206" stroke-linejoin="round"/>
</svg>
